<?xml version="1.0" standalone="no"?>
<!DOCTYPE svg PUBLIC "-//W3C//DTD SVG 20010904//EN"
 "http://www.w3.org/TR/2001/REC-SVG-20010904/DTD/svg10.dtd">
<svg version="1.0" xmlns="http://www.w3.org/2000/svg"
 width="512.000000pt" height="512.000000pt" viewBox="0 0 512.000000 512.000000"
 preserveAspectRatio="xMidYMid meet">
<metadata>
Created by potrace 1.11, written by Peter Selinger 2001-2013
</metadata>
<g transform="translate(0.000000,512.000000) scale(0.100000,-0.100000)"
fill="#000000" stroke="none">
<path d="M2379 5116 c-2 -2 -38 -6 -79 -10 -64 -6 -207 -29 -315 -51 -16 -3
-77 -19 -134 -36 -647 -186 -1198 -624 -1528 -1215 -27 -49 -57 -105 -65 -124
-63 -137 -79 -175 -106 -250 -72 -200 -117 -399 -139 -610 -15 -139 -8 -503
11 -615 3 -16 8 -43 10 -60 8 -58 38 -191 61 -275 152 -543 472 -1011 925
-1354 152 -115 330 -220 490 -290 47 -21 94 -42 105 -47 62 -28 307 -101 415
-123 215 -43 290 -50 525 -51 217 0 307 8 480 41 44 8 91 18 105 20 131 25
390 118 553 200 639 319 1107 870 1316 1549 78 254 105 448 106 740 0 193 -3
251 -16 330 -4 28 -10 66 -13 85 -2 19 -10 60 -16 90 -6 30 -14 66 -16 80 -3
14 -16 64 -30 112 -164 584 -526 1085 -1036 1432 -54 36 -101 66 -105 66 -3 0
-14 6 -22 14 -20 18 -257 137 -331 166 -196 79 -432 142 -620 166 -25 3 -56 8
-70 10 -29 6 -456 15 -461 10z m362 -776 c15 -36 44 -94 65 -130 20 -36 42
-74 48 -85 73 -132 191 -257 470 -495 114 -99 183 -178 248 -287 121 -203 171
-440 145 -678 -10 -88 -18 -112 -42 -123 -30 -14 -34 -9 -25 39 22 118 4 353
-34 443 -8 20 -13 36 -11 36 8 0 -61 130 -103 195 -61 93 -206 236 -317 311
-96 66 -242 142 -340 179 l-60 23 1 -1192 c0 -1312 5 -1217 -63 -1324 -83
-131 -225 -238 -408 -307 -67 -25 -282 -83 -335 -91 -113 -15 -278 -1 -356 32
-56 24 -138 80 -172 118 -37 42 -65 130 -65 200 2 109 126 281 278 383 124 83
297 160 396 177 19 3 59 10 90 15 130 22 293 5 379 -39 22 -11 43 -20 47 -20
5 0 8 602 8 1338 -1 735 1 1341 3 1345 2 4 31 7 65 5 l60 -3 28 -65z"/>
</g>
</svg>
